<?xml version="1.0" encoding="utf-8"?>
<!-- Generator: Adobe Illustrator 19.2.1, SVG Export Plug-In . SVG Version: 6.00 Build 0)  -->
<svg version="1.1" id="Layer_1" xmlns="http://www.w3.org/2000/svg" xmlns:xlink="http://www.w3.org/1999/xlink" x="0px" y="0px"
	 viewBox="0 0 1000 1000" style="enable-background:new 0 0 1000 1000;" xml:space="preserve">
<style type="text/css">
	.st0{fill:#EFC22B;}
	.st1{clip-path:url(#SVGID_2_);}
	.st2{clip-path:url(#SVGID_4_);fill:#FFFFFF;}
	.st3{clip-path:url(#SVGID_4_);fill:none;stroke:#171717;stroke-width:10.2928;stroke-miterlimit:10;}
</style>
<rect class="st0" width="1000" height="1000"/>
<g>
	<defs>
		<rect id="SVGID_1_" x="73.7" y="209.1" width="852.6" height="581.7"/>
	</defs>
	<clipPath id="SVGID_2_">
		<use xlink:href="#SVGID_1_"  style="overflow:visible;"/>
	</clipPath>
	<g class="st1">
		<defs>
			<rect id="SVGID_3_" x="73.7" y="209.7" width="852.6" height="580.7"/>
		</defs>
		<clipPath id="SVGID_4_">
			<use xlink:href="#SVGID_3_"  style="overflow:visible;"/>
		</clipPath>
		<path class="st2" d="M908.5,430.6L775.8,289.3L643.1,430.6h52c-0.9,5.3-2.3,10.4-4.4,15.3c-5.2,12.4-14.2,23.3-25.4,30.9
			c-5.6,3.8-11.7,6.3-18.2,8.3c-6.5,2-13.4,2.7-20.8,2.7H170.8v165.8h455.5c32.2,0,63.3-6.4,91.4-18.3
			c42.3-17.9,77.9-47.6,103.3-85.1c23.2-34.4,37.6-75.6,39.8-119.6H908.5z"/>
		<path class="st3" d="M236.2,559.9V356.7c0-44.5,36-80.5,80.4-80.5s80.4,36.1,80.4,80.5"/>
		<path class="st3" d="M557.8,700.6c0,44.5-36,80.5-80.4,80.5S397,745,397,700.6V356.7"/>
		<path class="st3" d="M557.8,700.6V384.4c0-44.5,36-80.5,80.4-80.5H685"/>
		<polygon class="st3" points="861.6,738.9 919.6,643.3 861.6,547.7 861.6,562.1 627.5,562.1 627.5,722.3 861.6,722.3 		"/>
		<polygon class="st3" points="529.2,270.5 477.9,217.4 426.6,270.5 433.4,270.5 433.4,550.7 519,550.7 519,270.5 		"/>
		<path class="st3" d="M336.7,565.7c0-0.8,0-4.4,0-5.2c0-70.6-57.1-129.2-127.6-129.2c-70.5,0-129.7,56.5-129.7,127.1
			c0,66,40.1,93.5,40.1,93.5v133.2h154.1V728H325v-68.6h43.1L336.7,565.7z"/>
	</g>
</g>
</svg>
